<svg width="167px" height="45px" viewBox="0 0 167 45" version="1.1" xmlns="http://www.w3.org/2000/svg" xmlns:xlink="http://www.w3.org/1999/xlink">
    <!-- Generator: Sketch 45.1 (43504) - http://www.bohemiancoding.com/sketch -->
    <desc>Created with Sketch.</desc>
    <defs>
        <linearGradient x1="50%" y1="3.12250226e-15%" x2="50%" y2="104.486374%" id="linearGradient-1">
            <stop stop-color="#543FC7" offset="0%"></stop>
            <stop stop-color="#765DFF" offset="100%"></stop>
        </linearGradient>
        <path d="M31.0851485,7.87694621 C31.0851485,7.87694621 28.8778975,8.60185632 30.4237624,9.38529761 C31.0851485,9.72048681 32.7162495,9.72390211 34.7227723,9.05010841 C36.7292951,8.3763147 42.8853762,5.6982164 48.2811881,5.6982164 C55.002671,5.6982164 39.3524752,12.569595 39.3524752,12.569595 L37.0376238,12.2344058 L26.1247525,10.055676 C26.1247525,10.055676 26.9247284,9.21465617 27.6128713,8.88251381 C28.3010142,8.55037145 31.0851485,7.87694621 31.0851485,7.87694621 Z" id="path-2"></path>
        <filter x="-8.4%" y="-87.3%" width="116.8%" height="216.4%" filterUnits="objectBoundingBox" id="filter-3">
            <feOffset dx="0" dy="-4" in="SourceAlpha" result="shadowOffsetOuter1"></feOffset>
            <feColorMatrix values="0 0 0 0 0.870588235   0 0 0 0 1   0 0 0 0 0.980392157  0 0 0 1 0" type="matrix" in="shadowOffsetOuter1"></feColorMatrix>
        </filter>
        <path d="M123.931274,8.35855943 C124.937482,10.3244511 125.705787,13.7164216 125.624897,15.9071613 C125.624897,15.9071613 125.587827,20.3692806 125.091788,21.4085929 C124.595748,22.4479051 123.062322,23.9055759 123.032063,23.1659293 C123.032063,23.1659293 122.948386,20.1098544 122.942283,19.98143 C122.607771,12.9424568 117.28538,7.91461875 110.710457,7.91461875 C104.135535,7.91461875 99.4630747,12.7748622 98.8055069,19.98143 C98.7876974,20.1766113 98.4847292,24.875418 98.4847292,24.875418 C98.4241851,25.6128325 97.7844756,26.213463 97.0537575,26.2169741 L43.733111,26.4731818 C43.0033513,26.4766883 42.3614774,25.8818871 42.2995146,25.1446619 C42.2995146,25.1446619 41.9340215,19.8010041 41.9262989,19.6462408 C41.5917875,12.9424568 36.5962711,7.91461875 30.0213485,7.91461875 C23.4464258,7.91461875 18.2779262,12.9424568 17.7857049,19.6462408 C17.7735059,19.8123841 17.4555983,25.1923767 17.4555983,25.1923767 C17.4118461,25.9321495 16.7839191,26.5245006 16.0504119,26.5153969 L1.07249341,26.3500248 C0.529770878,26.3500248 0.0898073382,25.9036887 0.0898073382,25.3503491 C0.0898073382,25.1967144 0.851262718,24.6611909 1.07249341,23.8361058 C1.2937241,23.0110207 2.48254177,18.0121235 4.05812417,15.7053397 C5.54624298,13.0912835 8.19178754,10.6775017 15.6323816,7.24424035 C21.0079195,4.76384339 25.5851257,4.43322997 30.8116401,4.6926488 C31.2988311,4.7168306 33.511204,3.75062989 33.9858469,3.81324493 C35.467299,4.00867851 36.3027816,2.08050229 37.6234707,2.70041826 C37.6234707,2.70041826 39.9803994,-0.0871435896 40.5997083,0.186499256 C41.2190173,0.460142101 41.9898621,6.36567904 46.056144,6.82786267 C49.271204,7.19329431 55.9769361,5.88471566 61.4333717,5.88471566 C64.7052031,5.88471566 59.3895542,7.06833197 65.7323816,6.55509406 C72.075209,6.04185616 86.5311202,4.23783632 88.0541638,3.87358046 C102.770005,0.354093856 106.903669,0.521688456 111.037332,1.19206686 C115.170995,1.86244526 121.123471,3.81115986 121.950203,4.87914806 C122.776936,5.94713626 123.931274,8.35855943 123.931274,8.35855943 Z" id="path-4"></path>
        <path d="M61.839604,19.7761628 C57.4908581,19.6445846 28.660322,19.273379 23.2534329,18.9381898 C17.8465438,18.6030006 9.15540127,18.6558388 1.92372992,8.88251381 C-2.22435659,2.86743886 1.47825623,2.8405875 2.46931606,0 L61.839604,19.7761628 Z" id="path-6"></path>
        <linearGradient x1="88.5505633%" y1="304.26354%" x2="44.8026994%" y2="-14.5292751%" id="linearGradient-8">
            <stop stop-color="#543FC7" offset="0%"></stop>
            <stop stop-color="#765DFF" offset="100%"></stop>
        </linearGradient>
        <path d="M22.8392468,0.0836003856 C22.9008777,0.215979262 23.581916,0.617183053 23.8390265,0.751444427 C25.6752772,1.71032231 28.750528,1.32322471 32.9550507,1.71299887 C37.1595735,2.10277303 45.4277293,2.60910396 56.6712936,8.43330013 C57.9418514,9.09145243 56.7119753,9.89442484 55.938219,10.4492931 C55.1114864,11.0541509 55.2359668,11.2251329 55.4013133,11.3964328 C56.0241475,12.0416923 52.8779907,11.9257348 52.673589,12.0013638 C51.4403344,12.4576703 46.3397166,13.155857 40.8224958,13.768769 C35.305275,14.381681 31.7415875,14.7179296 29.2485135,14.9678682 C24.1224958,15.4817679 15.797598,15.8403883 10.7346677,14.9678682 C5.67173743,14.0953481 1.64310451,12.3206273 0.608807159,11.7131704 C-0.145678063,11.2700509 -0.0707270698,10.8611438 0.155395958,10.9006251 C0.285502741,10.9233418 0.548282214,10.9292308 0.724447321,11.0541509 C0.900612428,11.179071 1.02555079,11.0541509 1.2402066,10.9006251 C3.66590124,9.16572289 11.0886267,3.27582029 20.8155651,0.457887211 C21.3898065,0.291527159 21.9041473,0.139182045 22.3636053,2.27373675e-13 L22.8392468,0.0836003856 Z" id="path-9"></path>
        <linearGradient x1="50%" y1="3.64516901%" x2="50%" y2="98.2582543%" id="linearGradient-11">
            <stop stop-color="#8872FF" stop-opacity="0" offset="0%"></stop>
            <stop stop-color="#7159F7" offset="97.2795759%"></stop>
        </linearGradient>
        <ellipse id="path-12" cx="95.9009901" cy="28.491082" rx="10.2514851" ry="10.3908652"></ellipse>
        <ellipse id="path-13" cx="14.7931665" cy="28.4018637" rx="10.2514851" ry="10.3908652"></ellipse>
        <ellipse id="path-14" cx="118.431225" cy="22.0453468" rx="2.70217458" ry="1.51405717"></ellipse>
        <filter x="-37.0%" y="-66.0%" width="174.0%" height="232.1%" filterUnits="objectBoundingBox" id="filter-15">
            <feOffset dx="-4" dy="2" in="SourceAlpha" result="shadowOffsetInner1"></feOffset>
            <feComposite in="shadowOffsetInner1" in2="SourceAlpha" operator="arithmetic" k2="-1" k3="1" result="shadowInnerInner1"></feComposite>
            <feColorMatrix values="0 0 0 0 1   0 0 0 0 1   0 0 0 0 1  0 0 0 0.5 0" type="matrix" in="shadowInnerInner1"></feColorMatrix>
        </filter>
        <path d="M2.63389227,18.0579956 C3.71798149,18.0579956 4.33886612,17.651064 4.46539895,16.8030747 C4.59193179,15.9550853 3.586571,15.2686421 2.50248179,15.2686421 C1.41839258,15.2686421 0.801843966,16.0006041 0.78697349,16.6271669 C0.772103014,17.2537298 1.54980306,18.0579956 2.63389227,18.0579956 Z" id="path-16"></path>
        <filter x="-27.1%" y="-35.9%" width="154.2%" height="171.7%" filterUnits="objectBoundingBox" id="filter-17">
            <feOffset dx="-1" dy="2" in="SourceAlpha" result="shadowOffsetInner1"></feOffset>
            <feComposite in="shadowOffsetInner1" in2="SourceAlpha" operator="arithmetic" k2="-1" k3="1" result="shadowInnerInner1"></feComposite>
            <feColorMatrix values="0 0 0 0 0.88807398   0 0 0 0 0.396837035   0 0 0 0 0.561861946  0 0 0 1 0" type="matrix" in="shadowInnerInner1"></feColorMatrix>
        </filter>
        <path d="M81.5069718,11.0735827 C81.9063967,9.9111072 83.0864322,9.46045837 84.1150874,10.1425917 C84.1150874,10.1425917 86.0056859,10.9208798 86.6538554,12.9883517 C86.8310959,13.553697 86.441669,14.1823046 85.8178893,14.244573 C83.7298979,14.4530053 82.9462849,13.2270696 82.9462849,13.2270696 C82.0165642,12.4300791 81.5849795,10.8465512 81.9860994,9.67914258 L81.5069718,11.0735827 Z" id="path-18"></path>
        <filter x="-19.3%" y="-21.8%" width="138.5%" height="143.6%" filterUnits="objectBoundingBox" id="filter-20">
            <feOffset dx="1" dy="-2" in="SourceAlpha" result="shadowOffsetInner1"></feOffset>
            <feComposite in="shadowOffsetInner1" in2="SourceAlpha" operator="arithmetic" k2="-1" k3="1" result="shadowInnerInner1"></feComposite>
            <feColorMatrix values="0 0 0 0 0.88807398   0 0 0 0 0.396837035   0 0 0 0 0.561861946  0 0 0 1 0" type="matrix" in="shadowInnerInner1"></feColorMatrix>
        </filter>
    </defs>
    <g id="Get-a-Quote" stroke="none" stroke-width="1" fill="none" fill-rule="evenodd">
        <g id="GET-A-QUOTE-12" transform="translate(-627.000000, -509.000000)">
            <g id="Group-60-Copy" transform="translate(627.000000, 510.000000)">
                <g id="Group-57" transform="translate(0.000000, 32.513352)" fill="#765DFF" fill-opacity="0.172299592">
                    <g id="Group-14">
                        <ellipse id="Oval-16-Copy" opacity="0.35" cx="83.4598598" cy="5.3630272" rx="83.4598598" ry="5.3630272"></ellipse>
                        <ellipse id="Oval-15-Copy-6" cx="83.5466251" cy="4.62266516" rx="72.3030608" ry="3.95228676"></ellipse>
                    </g>
                </g>
                <g id="Group-59" transform="translate(19.841584, 0.000000)">
                    <path d="M69.8490826,15.8001602 C74.0899588,15.8001602 77.5278682,15.0948611 77.5278682,14.2248304 C77.5278682,13.4249442 74.6219609,12.8393136 70.8577794,12.7379865 C70.527687,12.7291008 70.0933828,13.1371027 69.7514709,13.1371027 C69.4182274,13.1371027 69.1875536,12.7288713 68.8655047,12.7373189 C65.0891399,12.8363768 62.170297,13.4231658 62.170297,14.2248304 C62.170297,15.0948611 65.6082064,15.8001602 69.8490826,15.8001602 Z" id="Oval-4-Copy" fill="#E4DFFF" opacity="0.25" transform="translate(69.849083, 14.268675) scale(-1, 1) translate(-69.849083, -14.268675) "></path>
                    <ellipse id="Oval-4-Copy-2" fill="#E4DFFF" transform="translate(70.243370, 13.502932) scale(-1, 1) translate(-70.243370, -13.502932) " cx="70.2433705" cy="13.5029323" rx="4.76614277" ry="1"></ellipse>
                    <path d="M1.32277228,34.8596768 L1.98415842,17.8843322 L14.3851485,12.0668112 L23.3138614,12.4304063 C23.3138614,12.4304063 28.1089109,17.8843322 28.1089109,18.6115224 C28.1089109,19.3387125 26.6207921,32.1781632 26.6207921,32.1781632 C26.6207921,32.1781632 19.3455446,27.8831965 12.2356436,30.2465644 C5.12574257,32.6099324 1.32277228,34.8596768 1.32277228,34.8596768 Z" id="Path-66-Copy-2" fill="url(#linearGradient-1)" transform="translate(14.715842, 23.463244) scale(-1, 1) translate(-14.715842, -23.463244) "></path>
                    <path d="M109.085923,35.158041 L107.31692,24.4688116 C107.31692,24.4688116 106.492456,22.7234981 105.994148,21.9548926 C105.495839,21.1862871 103.513949,18.6030006 103.513949,18.6030006 C103.513949,18.6030006 99.2149396,15.7538924 99.049593,15.7538924 C98.8842465,15.7538924 88.7981079,16.2566762 88.7981079,16.2566762 L85.3258307,21.1169196 C85.3258307,21.1169196 82.5149396,26.9827306 82.6802861,27.3179198 C82.8456327,27.653109 83.0109792,31.6753794 83.1763257,32.1781632 C83.3416723,32.680947 82.862996,35.158041 82.862996,35.158041 C82.862996,35.158041 89.9555336,31.5077848 97.0654346,31.5077848 C104.175336,31.5077848 109.085923,35.158041 109.085923,35.158041 Z" id="Path-67-Copy-2" fill="url(#linearGradient-1)" transform="translate(95.879595, 25.455967) scale(-1, 1) translate(-95.879595, -25.455967) "></path>
                    <path d="M16.2039604,12.4943134 C16.2039604,12.4943134 22.6524752,6.54659392 32.2425743,2.85951271 C41.8326733,-0.82756849 48.4465347,-0.328562301 56.0524752,0.930286005 C60.0954275,1.59942922 67.1306931,3.61179961 75.0673267,6.12571861 C83.0039604,8.63963761 88.2950495,10.147989 91.9326733,10.147989 C92.82699,10.147989 58.8633663,18.695075 58.8633663,18.695075 L26.9514851,19.0302642" id="Path-69-Copy-2" fill="#FFFFFF" transform="translate(54.076995, 9.515132) scale(-1, 1) translate(-54.076995, -9.515132) "></path>
                    <path d="M123.931274,16.905884 C124.937482,18.8717758 125.705787,22.2637462 125.624897,24.4544859 C125.624897,24.4544859 125.587827,28.9166052 125.091788,29.9559175 C124.595748,30.9952297 123.062322,32.4529005 123.032063,31.7132539 C123.032063,31.7132539 122.948386,28.657179 122.942283,28.5287546 C122.607771,21.4897814 117.28538,16.4619434 110.710457,16.4619434 C104.135535,16.4619434 99.4630747,21.3221868 98.8055069,28.5287546 C98.7876974,28.723936 98.4847292,33.4227426 98.4847292,33.4227426 C98.4241851,34.1601571 97.7844756,34.7607876 97.0537575,34.7642987 L43.733111,35.0205064 C43.0033513,35.0240129 42.3614774,34.4292117 42.2995146,33.6919865 C42.2995146,33.6919865 41.9340215,28.3483287 41.9262989,28.1935654 C41.5917875,21.4897814 36.5962711,16.4619434 30.0213485,16.4619434 C23.4464258,16.4619434 18.2779262,21.4897814 17.7857049,28.1935654 C17.7735059,28.3597087 17.4555983,33.7397014 17.4555983,33.7397014 C17.4118461,34.4794741 16.7839191,35.0718252 16.0504119,35.0627215 L1.07249341,34.8973494 C0.529770878,34.8973494 0.0898073382,34.4510133 0.0898073382,33.8976737 C0.0898073382,33.744039 0.851262718,33.2085155 1.07249341,32.3834304 C1.2937241,31.5583453 1.82115563,26.5594481 3.39673803,24.2526644 C4.88485684,21.6386081 6.20762912,19.5600155 13.6482232,16.1267542 C18.2541883,14.0014558 26.2977314,11.9387546 32.8284212,11.9181213 C32.9937677,11.9181213 32.9937677,12.0857159 33.6551539,12.5884997 C34.31654,13.0912835 35.3867493,12.0352883 35.8046588,12.0857159 C35.9688715,12.1055308 35.3086192,12.2533105 36.466045,11.5829321 C37.6234707,10.9125537 35.1789344,13.0523628 35.4739658,13.0912835 C36.9554178,13.2867171 36.3027816,10.6278269 37.6234707,11.2477429 C37.6234707,11.2477429 39.9803994,8.46018102 40.5997083,8.73382386 C41.2190173,9.00746671 41.9898621,14.9130036 46.056144,15.3751873 C49.271204,15.7406189 55.9769361,14.4320403 61.4333717,14.4320403 C64.7052031,14.4320403 59.3895542,15.6156566 65.7323816,15.1024187 C72.075209,14.5891808 86.5311202,12.7851609 88.0541638,12.4209051 C102.770005,8.90141846 106.903669,9.06901306 111.037332,9.73939146 C115.170995,10.4097699 121.123471,12.3584845 121.950203,13.4264727 C122.776936,14.4944609 123.931274,16.905884 123.931274,16.905884 Z" id="Combined-Shape-Copy-10" fill="#FFFFFF" transform="translate(62.860276, 21.888872) scale(-1, 1) translate(-62.860276, -21.888872) "></path>
                    <g id="Path-78">
                        <use fill="black" fill-opacity="1" filter="url(#filter-3)" xlink:href="#path-2"></use>
                        <use fill="#90F9E9" fill-rule="evenodd" xlink:href="#path-2"></use>
                    </g>
                    <path d="M21.8257426,12.4943134 C21.8257426,12.4943134 28.2742574,6.54659392 37.8643564,2.85951271 C47.4544554,-0.82756849 54.0683168,-0.328562301 61.6742574,0.930286005 C65.7172096,1.59942922 72.7524752,3.61179961 80.6891089,6.12571861 C84.8733818,7.45108192 88.9290796,8.78507885 91.7324782,9.47776924" id="Path-69-Copy-2" stroke="#765DFF" transform="translate(56.779110, 6.247157) scale(-1, 1) translate(-56.779110, -6.247157) "></path>
                    <g id="Group-41" transform="translate(0.000000, 8.379730)">
                        <mask id="mask-5" fill="white">
                            <use xlink:href="#path-4"></use>
                        </mask>
                        <g id="Mask" transform="translate(62.860276, 13.341548) scale(-1, 1) translate(-62.860276, -13.341548) "></g>
                        <path d="M0.330693069,17.0946492 C0.330693069,17.0946492 2.64554455,17.7650276 3.63762376,15.4187032 C4.62970297,13.0723788 8.13626919,10.391576 9.59009901,9.38529761 C11.0439288,8.37901923 15.8732673,7.87694621 15.8732673,7.87694621 C15.8732673,7.87694621 21.1643564,7.05560657 26.6207921,13.5751626 C29.253904,16.7213045 31.1237626,19.7758415 34.0613861,21.2845142 C36.9990097,22.7931869 41.6185007,22.8678994 50.4306931,23.1280548 C56.2988833,23.3012968 66.9377168,23.3551523 78.3628915,23.3513261 C80.5356424,23.3505985 82.7368316,23.3477848 84.9390566,23.3433093 C90.1454102,23.3327288 96.501579,12.2579537 101.357426,12.2344058 C104.086195,12.2211729 104.264928,13.3809633 106.483168,16.4242708 C107.918218,18.3930826 108.79802,22.2900818 110.616832,23.1280548 C112.435644,23.9660278 114.765697,23.8576056 118.385173,23.7984332 C121.24896,23.7516151 122.662957,23.8873636 123.513861,23.7984332 C124.364766,23.7095029 124.671287,23.3433093 124.671287,23.3433093 L129.135644,28.1558928 L46.9584158,32.3457578 L-0.661386139,28.8262712 L-0.826732673,17.0946492 L0.330693069,17.0946492 Z" id="Path-6" fill="#DEFFFA" mask="url(#mask-5)"></path>
                        <path d="M-0.325378428,16.2566762 C-0.325378428,16.2566762 7.10542736e-15,19.6085682 2.81089109,19.6085682 C4.19989679,19.6085682 6.0328337,15.188826 9.05272277,12.9875995 C12.0726118,10.7863731 12.070297,11.731622 12.070297,11.731622 C12.070297,11.731622 13.1660866,11.2339434 15.7079208,11.3964328 C18.249755,11.5589222 18.372952,10.7355649 20.6683168,12.0668112 C21.3344579,12.4531541 24.6763169,13.8074036 25.9594059,15.2511086 C27.242495,16.6948136 29.6462035,24.0021037 38.6910891,24.5611196 C49.1881065,25.209884 84.2962525,25.255915 106.956517,25.2436263 C107.483218,25.2433407 107.805941,19.9751176 108.136634,21.8186582 C108.467327,23.6621988 110.120792,25.3067846 112.270297,25.231498 C116.582702,25.0804555 120.206931,25.13919 122.687129,25.13919 C122.900708,25.13919 125.251292,25.2436263 124.836634,24.5611196 C124.421976,23.8786128 125.251292,24.8040008 125.251292,24.8040008 L126.66076,28.3234874 L6.28848296,32.3457578 C6.28848296,32.3457578 -8.92339823,25.3067846 -8.59270516,24.8040008 C-8.26201209,24.301217 -2.47488338,16.9270546 -2.47488338,16.9270546 L-0.325378428,16.2566762 Z" id="Path-63" fill="#90F9E9" mask="url(#mask-5)"></path>
                    </g>
                    <g id="Path-80" transform="translate(35.384158, 12.402000)">
                        <mask id="mask-7" fill="white">
                            <use xlink:href="#path-6"></use>
                        </mask>
                        <g id="Mask"></g>
                        <path d="M-4.33875158e-13,4.6926488 C-4.33875158e-13,4.6926488 2.97623762,13.7427572 12.8970297,16.0890816 C20.8977703,17.9813028 34.6398499,17.4298384 45.6356436,17.4298384 C47.950495,17.4298384 48.2811881,15.083514 48.2811881,15.083514 L48.2811881,18.1002168 L47.950495,19.1057844 L23.1485149,19.1057844 L12.2356436,18.435406 C12.2356436,18.435406 -0.330693069,12.2344058 -4.33875158e-13,12.0668112 C0.330693069,11.8992166 -0.661386139,6.36859481 -0.661386139,6.36859481 L-4.33875158e-13,4.6926488 Z" fill="#DEFFFA" mask="url(#mask-7)"></path>
                    </g>
                    <path d="M58.8847913,1.08735968 C58.9464223,1.21687514 59.6274605,1.60940073 59.884571,1.74075798 C61.7208218,2.67889494 64.7960726,2.30017042 69.0005953,2.6815136 C73.205118,3.06285678 81.4732738,3.55823557 92.7168382,9.25645198 C93.987396,9.90036818 92.7575199,10.685972 91.9837636,11.2288382 C91.1570309,11.8206127 91.487724,12.2977827 91.6530705,12.4653773 C92.2759047,13.0966795 88.9235353,12.6733438 88.7191336,12.7473369 C87.485879,13.1937734 82.3852611,13.876858 76.8680403,14.4765125 C71.3508195,15.0761669 67.7871321,15.4051423 65.2940581,15.6496747 C60.1680403,16.1524585 51.8431425,16.5033218 46.7802122,15.6496747 C41.717282,14.7960276 37.6886491,13.0596946 36.6543517,12.4653773 C35.8998665,12.0318427 35.9748175,11.6317804 36.2009405,11.6704077 C36.3310473,11.692633 36.5938268,11.6983947 36.7699919,11.8206127 C36.946157,11.9428307 37.0710953,11.8206127 37.2857512,11.6704077 C39.7114458,9.97303213 47.1341712,4.21053055 56.8611096,1.45355052 C57.4353511,1.29078891 57.9496918,1.14173908 58.4091498,1.0055676 L58.8847913,1.08735968 Z" id="Path-51-Copy-2" fill="url(#linearGradient-8)" transform="translate(64.655607, 8.586074) scale(-1, 1) translate(-64.655607, -8.586074) "></path>
                    <path d="M71.3751971,6.32984085 C71.4641016,6.30731252 71.6515993,6.26358616 71.9260435,6.20436071 M73.1922312,5.94870971 C75.6182739,5.48680543 80.1084113,4.77318278 84.9336129,4.65389484" id="Path-79" stroke="#FFFFFF" stroke-width="2" stroke-linecap="round" transform="translate(78.154405, 5.491868) scale(1, -1) rotate(163.000000) translate(-78.154405, -5.491868) "></path>
                    <g id="Group-26" transform="translate(36.376238, 1.005568)">
                        <mask id="mask-10" fill="white">
                            <use xlink:href="#path-9"></use>
                        </mask>
                        <g id="Mask" transform="translate(28.610063, 7.748101) scale(-1, 1) translate(-28.610063, -7.748101) "></g>
                        <g mask="url(#mask-10)" id="Path-6-Copy" fill="url(#linearGradient-11)">
                            <g transform="translate(11.454877, 5.921322) rotate(122.000000) translate(-11.454877, -5.921322) translate(1.954877, -11.578678)">
                                <path d="M12.1095808,8.71491921 L2.31485149,34.0376147 L7.17852452,34.8874804 C7.17852452,34.8874804 13.1025664,34.6926297 16.0472245,32.8275859 C18.9918826,30.9625422 18.6065291,28.4398766 18.6065291,28.4398766 L12.1095808,8.71491921 Z"></path>
                                <path d="M4.44136526,-2.98427949e-13 C4.44136526,-2.98427949e-13 7.89720786,18.572538 3.36984733,25.7769016 C-1.1575132,32.9812652 0.186545325,34.27368 0.186545325,34.27368 L2.29293872,32.4283014 L10.823832,9.25854758 L4.44136526,-2.98427949e-13 Z"></path>
                            </g>
                        </g>
                    </g>
                    <path d="M42.990099,27.4855144 L49.6039604,30.5022172 L55.2257426,31.5077848 L64.8158416,31.842974 L78.0435644,31.842974 L83.3346535,31.842974 L83.3346535,30.8374064 L64.4851485,30.8374064 C64.4851485,30.8374064 55.8608814,30.7817459 51.9188119,30.167028 C47.9767424,29.5523101 42.990099,27.4855144 42.990099,27.4855144 Z" id="Path-49" fill="#90F9E9"></path>
                    <path d="M123.931274,16.905884 C124.937482,18.8717758 125.705787,22.2637462 125.624897,24.4544859 C125.624897,24.4544859 125.587827,28.9166052 125.091788,29.9559175 C124.595748,30.9952297 123.062322,32.4529005 123.032063,31.7132539 C123.032063,31.7132539 122.948386,28.657179 122.942283,28.5287546 C122.607771,21.4897814 117.28538,16.4619434 110.710457,16.4619434 C104.135535,16.4619434 99.4630747,21.3221868 98.8055069,28.5287546 C98.7876974,28.723936 98.4847292,33.4227426 98.4847292,33.4227426 C98.4241851,34.1601571 97.7844756,34.7607876 97.0537575,34.7642987 L69.2848179,34.8977295 L43.733111,35.0205064 C43.0033513,35.0240129 42.3614774,34.4292117 42.2995146,33.6919865 C42.2995146,33.6919865 41.9340215,28.3483287 41.9262989,28.1935654 C41.5917875,21.4897814 36.5962711,16.4619434 30.0213485,16.4619434 C23.4464258,16.4619434 18.2779262,21.4897814 17.7857049,28.1935654 C17.7735059,28.3597087 17.4555983,33.7397014 17.4555983,33.7397014 C17.4118461,34.4794741 16.7839191,35.0718252 16.0504119,35.0627215 L1.07249341,34.8973494 C0.529770878,34.8973494 0.0898073382,34.4510133 0.0898073382,33.8976737 C0.0898073382,33.744039 0.851262718,33.2085155 1.07249341,32.3834304 C1.2937241,31.5583453 1.82115563,26.5594481 3.39673803,24.2526644 C4.88485684,21.6386081 6.20762912,19.5600155 13.6482232,16.1267542 C18.2541883,14.0014558 26.2977314,11.9387546 32.8284212,11.9181213 C32.9937677,11.9181213 33.3228406,12.2344058 33.9842268,12.7371896 C34.6456129,13.2399734 35.3867493,12.0352883 35.8046588,12.0857159 C35.9688715,12.1055308 35.3086192,12.2533105 36.466045,11.5829321 C37.6234707,10.9125537 35.1789344,13.0523628 35.4739658,13.0912835 C36.9554178,13.2867171 36.3027816,10.6278269 37.6234707,11.2477429 C37.6234707,11.2477429 39.9803994,8.46018102 40.5997083,8.73382386 C40.7586278,8.80404274 36.3959226,12.4441837 36.466045,13.0912835 C36.5361674,13.7383833 41.3798363,15.2596548 44.4026786,15.6032385 C47.6177386,15.9686701 51.9389148,16.1481399 59.282575,15.791565 C66.6262352,15.43499 86.5311202,12.7851609 88.0541638,12.4209051 C102.770005,8.90141846 106.903669,9.06901306 111.037332,9.73939146 C115.170995,10.4097699 121.123471,12.3584845 121.950203,13.4264727 C122.776936,14.4944609 123.931274,16.905884 123.931274,16.905884 Z" id="Combined-Shape-Copy-10" stroke="#765DFF" transform="translate(62.860276, 21.888872) scale(-1, 1) translate(-62.860276, -21.888872) "></path>
                    <ellipse id="Oval-4-Copy-8" fill="url(#linearGradient-8)" transform="translate(20.172277, 12.376578) scale(-1, 1) translate(-20.172277, -12.376578) " cx="20.1722772" cy="12.3765778" rx="1.65346535" ry="1.31533422"></ellipse>
                    <path d="M122.897151,20.8327311 C123.609272,17.7650645 117.939017,19.0282214 117.939017,19.0282214 C117.939017,19.0282214 115.588444,21.0397157 114.864258,22.3189611 C114.140073,23.5982065 113.512661,24.2009661 112.927445,25.1635545 C111.325171,27.7990434 122.185029,23.9003977 122.897151,20.8327311 Z" id="Path-55-Copy-2" fill="#765DFF" transform="translate(117.862679, 22.402670) scale(-1, 1) translate(-117.862679, -22.402670) "></path>
                    <ellipse id="Oval-10-Copy-2" fill="#F478A2" transform="translate(114.415281, 21.467631) rotate(41.000000) translate(-114.415281, -21.467631) " cx="114.415281" cy="21.4159747" rx="1" ry="1"></ellipse>
                    <g id="Oval-3-Copy-3" transform="translate(95.900990, 28.491082) scale(-1, 1) translate(-95.900990, -28.491082) ">
                        <use fill="#FFFFFF" fill-rule="evenodd" xlink:href="#path-12"></use>
                        <ellipse stroke="#765DFF" stroke-width="10" cx="95.9009901" cy="28.491082" rx="5.25148515" ry="5.39086521"></ellipse>
                    </g>
                    <ellipse id="Oval-11-Copy" stroke="#765DFF" stroke-width="2" fill="#E4DFFF" transform="translate(95.614389, 28.535774) scale(-1, 1) translate(-95.614389, -28.535774) " cx="95.6143894" cy="28.5357739" rx="1.36686469" ry="1.38544869"></ellipse>
                    <g id="Oval-3-Copy-3" transform="translate(14.793167, 28.401864) scale(-1, 1) rotate(49.000000) translate(-14.793167, -28.401864) ">
                        <use fill="#FFFFFF" fill-rule="evenodd" xlink:href="#path-13"></use>
                        <ellipse stroke="#765DFF" stroke-width="10" cx="14.7931665" cy="28.4018637" rx="5.25148515" ry="5.39086521"></ellipse>
                    </g>
                    <ellipse id="Oval-11-Copy" stroke="#765DFF" stroke-width="2" fill="#E4DFFF" transform="translate(14.825359, 28.434494) scale(-1, 1) rotate(49.000000) translate(-14.825359, -28.434494) " cx="14.8253595" cy="28.4344943" rx="1.36686469" ry="1.38544869"></ellipse>
                    <ellipse id="Oval-3-Copy-8" stroke="#0FE1C3" stroke-width="2" transform="translate(95.900990, 28.491082) scale(-1, 1) translate(-95.900990, -28.491082) " cx="95.9009901" cy="28.491082" rx="7.93663366" ry="8.04454081"></ellipse>
                    <ellipse id="Oval-3-Copy-9" stroke="#0FE1C3" stroke-width="2" transform="translate(14.881188, 28.491082) scale(-1, 1) translate(-14.881188, -28.491082) " cx="14.8811881" cy="28.491082" rx="7.93663366" ry="8.04454081"></ellipse>
                    <g id="Oval-10-Copy-22" transform="translate(118.431225, 22.045347) rotate(-139.000000) translate(-118.431225, -22.045347) ">
                        <use fill="#FAD214" fill-rule="evenodd" xlink:href="#path-14"></use>
                        <use fill="black" fill-opacity="1" filter="url(#filter-15)" xlink:href="#path-14"></use>
                    </g>
                    <path d="M85.6399838,10.9908208 C85.5991914,10.9735069 86.2150842,11.0921621 86.1776753,11.0789851 L86.0691213,11.3956003 L86.2020353,11.7025238 C86.2330268,11.6883804 86.2330268,11.6883804 86.2889743,11.6470271 C86.3171344,11.6225449 86.3401977,11.5951486 86.3583211,11.5658525 C86.4453191,11.4252216 86.4184835,11.2408153 86.2951495,11.1248452 C86.283326,11.1137278 86.2706158,11.1032392 86.2570339,11.0934785 C86.1918379,11.0466245 86.1134261,11.0182803 85.9975871,10.9908208 C85.7732165,10.9376341 85.3636456,10.882151 84.7160065,10.8229807 C84.1029153,10.7669668 83.6616208,10.7359198 83.3776427,10.7280776 C83.2349817,10.7241379 83.1286315,10.7258515 83.0512913,10.734102 C82.9947041,10.7401386 82.9475812,10.7496405 82.9001815,10.7688896 C82.7516442,10.8292109 82.6309736,10.9700722 82.687444,11.1849526 C82.7584489,11.455139 82.8100094,11.4690767 83.9579158,11.7131377 C84.0619884,11.735265 84.1719375,11.7580598 84.2870567,11.7814166 C84.5832593,11.8415137 84.9002178,11.9026589 85.2171206,11.9616851 C85.3279931,11.9823361 85.4309599,12.0012512 85.5234021,12.0180301 C85.5789652,12.0281152 85.6186006,12.035234 85.6401277,12.0390649 C85.9448638,12.0951682 86.423882,12.3036489 86.6811463,12.493294 L87.9640919,13.4390313 C87.9826701,13.4524969 88.0194506,13.4857009 88.0564977,13.532391 C88.2793903,13.8133006 88.15596,14.099042 87.0478051,14.5310503 C86.6973193,14.6676853 86.493501,14.7680055 86.3860807,14.8693162 C86.2266833,15.0196477 86.1762621,15.2738404 86.3934928,15.4457363 C86.4815995,15.5154557 86.5720109,15.5365429 86.6983237,15.5454115 C86.9512699,15.5631711 87.4297569,15.5133199 88.097475,15.4133617 C88.2184501,15.3952516 88.3437941,15.3757215 88.4726177,15.3549769 C88.7325004,15.3131278 88.9944796,15.2683267 89.2456369,15.2235256 C89.3335559,15.2078427 89.4138729,15.1932744 89.4849637,15.1801906 C89.5277541,15.1723153 89.5578632,15.1667026 89.5742438,15.1636147 L89.8444635,15.112669 L89.8444635,14.4648458 L89.1830773,14.4648458 L89.1830773,14.553978 C89.1662684,14.5569936 89.1489029,14.5601005 89.1310037,14.5632933 C88.8832359,14.6074898 88.6247905,14.6516865 88.3688441,14.6929019 C88.2856057,14.7063058 88.2039047,14.7191844 88.1240075,14.7314781 C88.6814237,14.3567376 88.8860249,13.9400431 88.7894594,13.5373504 C88.7548427,13.3929933 88.6815238,13.2504356 88.5718819,13.1122549 C88.4922338,13.0118751 88.4123191,12.9397311 88.3508077,12.895197 L87.0701549,11.9511348 C86.8823542,11.8126955 86.6220423,11.6742561 86.3583211,11.5658525 C86.2722791,11.5304847 86.1858743,11.498314 86.1015064,11.4703836 C85.9798355,11.430104 85.8624011,11.3986433 85.7564009,11.3791302 C85.7240349,11.3733472 85.6879998,11.3668637 85.6399838,11.3581485 C85.572318,11.3458666 85.4989109,11.3324203 85.4208289,11.317973 C85.3933354,11.3128859 85.3652623,11.3076747 85.3366561,11.3023466 C85.0229286,11.2439118 84.709257,11.1834007 84.4168714,11.124078 C84.3036631,11.101109 84.1956868,11.0787231 84.0936946,11.0570382 C83.8056331,10.9957923 83.5715441,10.9414703 83.4051016,10.8964779 C83.3189305,10.8731842 83.2533708,10.853007 83.2128965,10.8376131 C83.2814765,10.8636967 83.2885458,10.8678042 83.3265452,11.012399 C83.3792098,11.2127975 83.2692014,11.3412126 83.1461608,11.3911797 C83.1248935,11.3998163 83.1194707,11.4009098 83.1205178,11.4007981 C83.1625526,11.3963139 83.2437128,11.3950062 83.3596298,11.3982073 C83.6268283,11.4055862 84.0561693,11.4357922 84.6566315,11.4906522 C85.1185711,11.5328564 85.4497706,11.57255 85.6658096,11.6083889 C85.7393296,11.6205852 85.7995129,11.632335 85.8469735,11.6435855 C85.7906213,11.5800698 85.7456188,11.4794267 85.7473069,11.377507 C85.7487466,11.2905768 85.7841532,11.202718 85.8583791,11.1381864 C85.9074935,11.1018069 85.9074935,11.1018069 85.9362073,11.0886769 L85.1647639,11.4318984 L85.9605673,11.7122156 C86.2215714,11.8041528 86.6622256,12.0723137 87.0010686,12.3299012 L88.0568054,13.1324693 C88.2616258,13.2881731 88.5142306,13.4253909 88.7894594,13.5373504 C88.8732436,13.5714327 88.3853502,14.2927004 88.4726177,14.3219103 C88.5598853,14.3511202 90.1876899,13.8980933 90.6674126,13.8373126 C90.6958432,13.835256 90.7663203,13.8278051 90.855887,13.8156302 C91.0052436,13.7953281 91.1549285,13.7686507 91.2968081,13.7343637 C91.3982127,13.709858 91.4923156,13.6821943 91.5780951,13.6507181 C91.6008898,13.6423538 91.623671,13.6358457 91.6582408,13.6276166 C91.8576153,13.5816357 92.8723383,12.2871969 92.8075244,12.3299012 C92.7593188,12.3616627 92.1104127,12.801797 91.7328123,12.9375175 C91.3552118,13.0732381 90.631162,13.168003 90.5993854,13.1706425 C89.9459409,13.2531273 88.9722849,12.9904411 88.4536371,12.5961665 L87.3029703,11.8992166 C86.95705,11.636249 85.9689801,11.1304605 85.6399838,10.9908208 Z" id="Path-54-Copy-2" fill="#FFFFFF" fill-rule="nonzero"></path>
                    <path d="M0.848321268,12.8382767 C0.848321268,12.8382767 1.84040048,13.5086551 1.34436087,14.0114389 C0.673757512,14.6911599 -0.14375794,15.3521957 0.0215885945,16.6929525 C0.206130385,18.1893592 1.3815338,18.8944286 2.49401595,19.3744661 C3.65921236,19.8772499 4.8166381,19.5420607 5.3126777,20.7152229 C5.80871731,21.8883851 5.64337077,21.8883851 5.64337077,21.8883851 C5.64337077,21.8883851 5.67279409,20.4363415 5.3126777,19.5420607 C5.06982607,18.9389847 3.73534702,15.7960256 2.49401595,14.0114389 C1.25268489,12.2268522 0.848321268,12.8382767 0.848321268,12.8382767 Z" id="Path-71" fill="#765DFF" transform="translate(2.834913, 17.312787) scale(-1, 1) translate(-2.834913, -17.312787) "></path>
                    <g id="Oval-10-Copy-26" transform="translate(2.631481, 16.663319) scale(-1, 1) rotate(-142.000000) translate(-2.631481, -16.663319) ">
                        <use fill="#F478A2" fill-rule="evenodd" xlink:href="#path-16"></use>
                        <use fill="black" fill-opacity="1" filter="url(#filter-17)" xlink:href="#path-16"></use>
                    </g>
                    <path d="M26.9514851,10.0946731 C26.9514851,10.0946731 26.6526431,9.60722397 27.1168317,9.42429469 C27.5810203,9.24136541 34.8463303,6.68016214 35.3841584,6.40759189 C36.0455446,6.07240269 36.0455446,5.90480809 36.0455446,5.40202429 C36.0455446,4.89924049 22.8178218,9.42429469 22.8178218,9.42429469 L26.9514851,10.0946731 Z" id="Path-72" fill="#765DFF"></path>
                    <path d="M85.3188119,12.0668112 C85.3188119,12.0668112 88.6257426,13.0723788 89.2871287,15.5862978 C89.6849005,17.0982227 89.6042153,17.8827043 89.4767046,18.2678676" id="Path-76" stroke="#765DFF" stroke-width="2"></path>
                    <path d="M83.7702646,31.842974 C79.4215187,31.7113958 64.3751735,32.0105686 58.9682844,31.6753794 C53.5613953,31.3401902 44.8702528,31.3930284 37.6385814,21.6197034 C33.4904949,15.6046285 37.1931077,15.5777771 38.1841675,12.7371896" id="Path-77" stroke="#765DFF"></path>
                    <mask id="mask-19" fill="white">
                        <use xlink:href="#path-18"></use>
                    </mask>
                    <g id="Mask" transform="translate(84.101886, 11.973786) scale(-1, 1) rotate(-34.000000) translate(-84.101886, -11.973786) ">
                        <use fill="#F478A2" fill-rule="evenodd" xlink:href="#path-18"></use>
                        <use fill="black" fill-opacity="1" filter="url(#filter-20)" xlink:href="#path-18"></use>
                    </g>
                </g>
            </g>
        </g>
    </g>
</svg>
