<svg width="92px" height="38px" viewBox="0 0 92 38" version="1.1" xmlns="http://www.w3.org/2000/svg" xmlns:xlink="http://www.w3.org/1999/xlink">
    <!-- Generator: Sketch 45.1 (43504) - http://www.bohemiancoding.com/sketch -->
    <desc>Created with Sketch.</desc>
    <defs></defs>
    <g id="Get-a-Quote" stroke="none" stroke-width="1" fill="none" fill-rule="evenodd">
        <g id="GET-A-QUOTE-3b-hover-b" transform="translate(-149.000000, -34.000000)" fill="#0FE1C3">
            <path d="M223.048968,44.525556 C221.38497,46.4386866 218.774062,46.7837276 217.2171,45.2964937 C215.660137,43.8090895 215.74687,41.0523361 217.410705,39.1393756 C219.074702,37.2262449 221.685773,36.8810337 223.242736,38.3684379 C224.799698,39.8556719 224.712965,42.6124253 223.048968,44.525556 Z M227.394527,65.9792083 C227.429285,66.4134459 227.431396,66.8643653 227.394202,67.314774 C227.394202,67.3236256 227.395501,67.3319665 227.395501,67.3406479 C227.395501,69.8693031 225.396755,71.9499327 222.997481,71.9499327 C220.54948,71.9499327 219.427967,71.103246 218.653546,69.7562754 C217.909335,68.4617333 217.84453,66.8645355 217.84453,65.4060692 C217.84453,65.4031754 218.057625,58.7124098 218.057625,58.7124098 C218.057625,57.8815538 218.068507,57.1308725 218.058762,56.4630897 C218.058762,56.4567914 218.058437,56.4511741 218.058437,56.4448759 C218.057138,56.3587433 218.054377,56.2775471 218.052265,56.1941381 C217.960173,54.3691827 216.844994,54.0169923 216.305596,53.9538398 C216.161854,53.9369878 216.066513,53.7860004 216.117838,53.6443753 C216.992472,51.233514 219.369658,48.6136195 221.980729,49.0170468 C223.634981,49.272721 224.236586,50.3112485 224.49516,52.3227678 C224.664239,53.6368855 224.686978,58.099779 224.686978,59.4147478 C224.686978,60.7848687 224.580755,62.0234076 224.875711,63.3957414 C225.143055,64.639387 225.976434,65.5764619 227.145374,65.7078736 C227.278721,65.7230234 227.383482,65.8392854 227.394527,65.9792083 Z M240.9745,65.993507 C241.007959,66.4233188 241.009583,66.8691315 240.972876,67.314774 C240.973038,67.3236256 240.974175,67.3319665 240.974175,67.3406479 C240.974175,69.8693031 238.975429,71.9499327 236.576154,71.9499327 C234.128316,71.9499327 233.00664,71.103246 232.23222,69.7562754 C231.488009,68.4617333 231.423203,66.8645355 231.423203,65.4060692 C231.423203,65.4031754 231.636299,58.7124098 231.636299,58.7124098 C231.636299,57.8815538 231.647181,42.1552076 231.637436,41.4872546 C231.637436,41.4811265 231.637111,41.475339 231.637111,41.4690407 C231.635812,41.3829082 231.633051,41.301712 231.630939,41.218303 C231.539821,39.4144552 230.449331,39.0494981 229.903111,38.9802176 C229.744913,38.9603015 229.653146,38.7856533 229.710805,38.6298997 C230.596483,36.2297624 232.9623,33.6401675 235.559565,34.041382 C237.213655,34.2968859 237.815422,35.3355836 238.073833,37.3469327 C238.242913,38.6612206 238.265652,58.099779 238.265652,59.4147478 C238.265652,60.7848687 238.159429,62.0234076 238.454384,63.3957414 C238.720592,64.6346208 239.548611,65.5691423 240.710567,65.7063416 C240.851548,65.7230234 240.962806,65.845073 240.9745,65.993507 Z M213.781095,65.8522223 C213.816503,66.2895239 213.818777,66.7436776 213.781582,67.197661 C213.781582,67.2063423 213.782719,67.2148534 213.782719,67.2235348 C213.782719,69.7520198 212.148607,71.9094198 209.749495,71.9313785 C207.921128,71.9480603 206.705898,71.1381416 205.931478,69.791171 C205.187267,68.4967991 205.122461,66.8996014 205.122461,65.441135 C205.122461,65.4382412 205.136754,58.7101969 205.136754,58.7101969 C205.136754,56.8372387 203.590512,55.3244714 201.769616,55.504737 C200.336093,55.6450003 199.223188,56.8969868 199.024061,58.3627728 C198.757204,60.328332 198.965265,62.5168827 199.126711,64.4872081 C199.30716,66.6895468 200.079469,69.6949953 198.312335,71.1578874 C196.710057,72.4842612 194.202448,71.8658428 192.444896,71.3080237 C192.328928,71.2712556 192.259574,71.1510785 192.275167,71.0251139 C192.70818,67.6492613 192.874661,64.2490668 192.737091,60.8449573 C192.680568,59.4470901 192.504504,57.9726228 191.704259,56.8031942 C191.06952,55.8759923 190.053905,55.3944328 188.970073,55.5059286 C187.381114,55.6691719 186.203403,57.1375112 186.203403,58.8107984 L186.178391,68.8237965 C186.178391,72.5479244 182.313434,72.0813445 180.430494,71.6333189 C180.056439,71.5352707 179.686933,71.4048803 179.318076,71.2833414 C179.210879,71.2481054 179.143636,71.1352478 179.159554,71.0186454 C179.463767,68.8026889 179.845942,67.0017349 179.970194,64.8688469 C180.180204,61.2647259 180.378844,56.0710673 176.191158,54.8972129 C176.049852,54.857551 175.964256,54.7046912 176.003562,54.5571083 C176.40669,53.0460432 177.205149,51.5882577 178.356709,50.6746736 C180.156328,49.2470174 182.18301,48.848867 183.408635,51.2495149 C183.507224,51.442377 183.732664,51.5068914 183.90954,51.3906294 L184.481747,51.0149483 C186.646162,49.5510348 190.848466,47.5284511 194.887537,50.2562666 C195.368627,50.5812214 195.706623,50.9454976 195.979327,51.2435571 C196.166923,51.4486753 196.466589,51.4862944 196.696414,51.3351369 L197.33229,50.9169002 C199.49573,49.4529867 204.042041,47.516876 208.005262,50.3653793 C210.917298,52.4523071 211.115126,56.6457384 211.079718,59.9855039 C211.067862,61.0951843 211.028231,62.1859701 211.262929,63.2786283 C211.530922,64.5255082 212.3682,65.4642852 213.542012,65.5917819 C213.67,65.6057401 213.770213,65.7179168 213.781095,65.8522223 Z M167.0719,41.2671569 C167.114454,41.2690293 167.153759,41.2700506 167.187056,41.2698804 C167.148724,41.268008 167.110231,41.2685186 167.0719,41.2671569 Z M177.344993,37.2830993 C178.76877,39.0740102 179.043748,41.9192793 177.700044,43.8475597 C176.538575,45.5145487 174.440103,46.0337273 172.618395,46.3353616 C172.410335,46.3697465 172.222414,46.1884596 172.247102,45.969213 C172.484723,43.8540282 171.04779,42.329175 169.252556,41.6700735 C168.579324,41.4215487 167.853142,41.2875836 167.139791,41.266476 C167.106982,41.2654546 167.074173,41.266476 167.041365,41.2657951 C167.051922,41.2663058 167.06183,41.2668164 167.0719,41.2671569 C167.048998,41.2663058 167.025935,41.2661355 167.003033,41.2656249 C165.871288,41.2480919 164.745064,41.4252936 163.645316,41.6961176 C162.0687,42.0845653 160.513525,42.6083399 159.00204,43.2160343 C158.86382,43.2715268 158.940158,43.3288918 159.01211,43.4083857 C159.364562,43.7976846 159.504406,44.3199272 159.561416,44.8413187 C159.676085,45.8905702 159.706133,48.030267 159.720426,49.2837855 C159.729846,50.0981299 159.712305,50.4115096 159.698012,51.2374291 C159.698012,51.2401527 159.700773,51.2425358 159.703209,51.2413443 C161.004846,50.6939087 162.364955,49.9954858 163.796367,50.0300409 C165.635291,50.0742988 166.913377,51.4624633 166.718473,53.445215 C166.59146,54.7368633 166.098027,56.1059629 165.423332,57.2101962 C165.314673,57.386717 165.156963,57.3545449 165.077701,57.3228835 C165.066332,57.3174364 165.053826,57.3121595 165.042131,57.3067124 C165.033361,57.3021164 165.028163,57.2988821 165.028163,57.2988821 C164.130141,56.8866032 162.432197,56.5473498 159.552483,57.4442522 C159.550859,57.4447628 159.549722,57.4464651 159.549722,57.4481673 C159.547448,57.561195 159.545336,57.6672436 159.543387,57.7668238 C159.487839,60.5157469 158.978651,63.8264044 161.818248,65.1395007 C165.04002,66.629288 170.253229,64.3712866 170.457229,60.5070656 C170.466487,60.331396 170.612178,60.198282 170.779471,60.2124105 C172.843835,60.3848458 174.386342,61.553934 174.888708,63.7683585 C175.315549,65.6493171 174.682597,67.7827157 173.398176,69.1281543 C171.909105,70.6882436 169.712044,71.3310037 167.706151,71.6641291 C162.564083,72.5184759 155.668848,71.694599 153.497774,65.9089064 C152.398025,62.9780154 152.77549,59.6886358 152.96406,56.5914374 C153.181216,53.0279996 153.632907,49.342342 153.230754,45.7812873 C153.058101,44.7083749 152.523251,44.8520427 152.523251,44.8520427 L152.524713,44.8430209 C151.505362,44.8990241 150.967426,44.6705855 150.967426,44.6705855 C150.276002,44.458999 149.657342,44.0271445 149.332989,43.3624256 C148.50432,41.6641157 149.414849,39.6112324 149.980396,38.0067151 C150.016454,37.9042412 150.127225,37.8531744 150.22289,37.8970918 C151.014365,38.2605168 151.490419,39.0855853 155.907118,37.6235443 C158.124482,36.8895448 160.279314,35.9572362 162.50886,35.2603453 C167.231721,33.7840055 173.747055,32.7575639 177.344993,37.2830993 Z" id="Fill-1-Copy-12"></path>
        </g>
    </g>
</svg>
